<svg id="Capa_1" enable-background="new 0 0 499.398 499.398" height="512" viewBox="0 0 499.398 499.398" width="512" xmlns="http://www.w3.org/2000/svg"><g><path d="m430.202 420.135c-8.486-10.985-19.801-17.686-32.335-21.345 1.03-74.525 2.233-149.065 2.213-223.585-.006-23.406-.33-46.815-1.351-70.201-.503-11.523-1.162-23.044-2.062-34.543-1.202-15.34-3.855-29.061-14.031-41.134-11.11-13.184-27.976-14.825-44.044-14.437-11.625.28-23.25.561-34.875.842-23.582.569-47.164 1.139-70.746 1.708-53.142 1.283-106.284 2.566-159.427 3.849-15.676.378-30.738 13.528-30 30 .054 1.208.184 2.406.37 3.592-2.037 4.019-3.326 8.604-3.774 13.578-.405 4.504-.811 9.008-1.217 13.512-.201 2.236.119 4.749.807 7.285-.848 43.035-1.696 86.07-2.544 129.105-.935 47.447-1.915 95.052 2.656 142.358 1.156 11.961 2.601 23.91 4.426 35.797-1.838 3.8-2.777 8.015-2.437 12.428.269 3.483.712 6.853 1.327 10.125-1.203 6.732-2.654 13.559-1.947 20.305.892 8.511 2.907 15.719 8.207 22.578 3.253 4.21 7.148 7.685 11.612 10.275 5.203 8.802 14.371 15.062 25.391 14.651 21.97-.819 43.94-1.638 65.91-2.458 49.981-.345 99.989 2.289 149.912 4.655.068.003.136.006.204.01 4.244 1.294 8.76 1.612 13.281.62 13.342.611 26.685 1.179 40.033 1.641 8.918.309 17.837.569 26.758.764 10.021.219 20.984 1.378 30.773-1.275 17.376-4.71 28.187-20.843 28.401-38.427.146-11.921-4.321-22.993-11.491-32.273z" fill="#41efcd"/><g fill="#2e386b"><path d="m413.598 368.825c-.587 8.741-.481 17.321-1.075 25.857-82.445 8.906-165.993-4.284-248.69-2.498-10.642 1.262-23.133 1.025-36.192.68-2.539-60.706-1.892-122.966-2.914-183.704.395-37.631-3.394-75.603-.98-113.067.976-15.489-22.807-15.312-21.827-.012 2.675 34.639 4.946 68.909 3.466 103.502-.893 63.459-4.617 129.266-7.336 192.9-20.372.402-39.825 3.012-53.661 12.928 1.877-16.604 4.539-33.435 2.295-49.526.876-97.718.953-202.104 2.56-299.704-.346-4.792-1.942-8.464-4.221-11.074.817-3.194 1.785-6.338 4.075-8.32 9.932-11.038 27.503-12.46 41.418-9.881 66.882 1.632 138.117 3.839 204.851 4.198 39.322-.023 79.616-4.194 118.556 2.459.728 6.721.479 13.834 1.378 20.698.704 9.842 16.009 10.048 16.922.104 1.235-13.112 10.846-35.303-5.853-42.231-49.486-18.022-102.733-11.447-153.828-8.526-60.368 5.144-121.071 5.395-181.628 5.344-23.024-3.683-51.45 3.817-61.032 27.266-.702 1.669-1.357 3.636-1.805 5.676-6.21 3.097-10.889 10.811-8.944 23.001-.211 45.062-.409 96.229-.767 141.264.602 49.975-1.197 116.583 1.657 165.979-1.339 43.121-16.031 110.968 43.133 121.161 46.399 9.533 94.013 5.233 140.643 4.49 47.815-.785 108.699-1.304 156.316-2.436 20.939-.576 41.766-1.703 62.529-2.587 3.604-.159 6.483-3.14 6.465-6.779-.019-3.728-3.057-6.736-6.785-6.717-20.885.105-41.697.436-62.418.408-8.707.14-22.435-.422-31.143-.362-34.883-.546-90.112-1.336-124.997-1.746-31.597-1.561-139.047 6.393-155.137-19.71-2.494-5.517-4.006-11.214-4.857-17.036 5.521-11.153 15.342-17.885 28.541-19.118 30.45-3.464 62.098 5.504 93.183-.094 25.949-1.147 52.565-3.746 78.512-4.34 48.431-1.078 97.218 1.615 145.554-2.735 40.947-5.416 40.013 4.478 40.56-36.4 4.107-20.402-14.22-22.118-16.524-9.312zm-.369-339.862c-.081-.271-.142-.542-.163-.813.059.268.108.542.163.813zm-1.299 371.083c.035-.142.08-.279.123-.417-.035.208-.073.38-.128.468.001-.021-.009.037.005-.051z"/><path d="m470.287 235.311c-13.818 4.338-23.645 15.51-32.349 26.165-1.4 2.025-2.874 4.354-4.5 6.591-3.138-45.057.038-90.624 4.194-135.444-1.243-19.72-31.19-17.862-30.087 1.786 1.249 22.523 3.02 48.304 4.471 70.749 1.19 23.19 4.028 46.411.158 69.43-15.341-8.547-25.36-24.429-35.407-38.963-5.79-9.143-19.987.069-14.074 9.078 11.283 17.688 22.284 37.104 40.429 49.686 19.194 13.689 46.836 5.191 58.451-14.4l-1.054 1.344c8.2-10.159 14.165-21.396 20.226-32.719 4.065-6.72-2.862-15.708-10.458-13.303z"/><path d="m342.688 177.976c-13.264-10.494-24.95-22.684-36.342-35.124-5.347-4.434-8.106-12.638-14.573-15.301-24.579-5.248-45.812 14.978-56.345 34.704-3.342 5.976-6.387 11.811-8.604 18.244-2.458 15.39 13.339 12.346 21.253 5.478 10.402-6.281 19.011-19.208 28.335-27.835.347 4.321.56 8.651.756 12.945.323 17.64.844 35.506-2.954 52.873-2.185 10.022-4.436 20.385-4.456 30.596.706 11.996.001 33.461 11.07 40.672 4.565 1.823 9.742-.4 11.566-4.964 14.504-41.848 5.678-88.148.936-131.606 12.178 10.699 24.623 21.382 37.226 31.116 8.425 9.199 21.673-3.623 12.132-11.798z"/></g></g></svg>